<?xml version="1.0" encoding="utf-8"?>
<!-- Generator: Adobe Illustrator 26.4.1, SVG Export Plug-In . SVG Version: 6.00 Build 0)  -->
<svg version="1.1" id="Capa_1" xmlns="http://www.w3.org/2000/svg" xmlns:xlink="http://www.w3.org/1999/xlink" x="0px" y="0px"
	 viewBox="0 0 841.9 595.3" style="enable-background:new 0 0 841.9 595.3;" xml:space="preserve">
<style type="text/css">
	.st0{fill:url(#SVGID_1_);}
	.st1{fill:#FFFFFF;}
	.st2{fill:url(#SVGID_00000000942397906640980730000012752814605910668726_);}
	.st3{fill:#32508E;}
	.st4{fill:#353D74;}
	.st5{fill:#343E77;}
	.st6{fill:#384276;}
	.st7{fill:url(#SVGID_00000132767180822286975250000004756448113231347365_);}
</style>
<g>
	<linearGradient id="SVGID_1_" gradientUnits="userSpaceOnUse" x1="391.575" y1="400.1337" x2="450.934" y2="400.1337">
		<stop  offset="0" style="stop-color:#2D5594"/>
		<stop  offset="1" style="stop-color:#304B8F"/>
	</linearGradient>
	<path class="st0" d="M450.8,424.4L432.2,318c-12.9,0.8-22.1,0-22.1,0l-18.5,108.3c20.2,33.9,29.5,56.1,29.5,56.1
		s7.8-21.2,29.8-57.4L450.8,424.4z"/>
	<g>
		<polygon class="st1" points="420.2,387.5 422.3,387.5 422.3,367.7 420.3,367.7 		"/>
		<polygon class="st1" points="420.3,348.5 422.2,348.5 422.1,335.8 420.4,335.8 		"/>
		<polygon class="st1" points="420.3,366.2 422.2,366.2 422.2,349.9 420.3,349.9 		"/>
		<polygon class="st1" points="419.8,455.1 422.7,455.1 422.4,420.6 420.1,420.6 		"/>
		<polygon class="st1" points="420.1,416.6 422.4,416.6 422.3,391.5 420.2,391.5 		"/>
		<polygon class="st1" points="422.1,318.3 420.5,318.3 420.4,323 422.1,323 		"/>
		<polygon class="st1" points="420.4,324 420.4,334.9 422.1,334.9 422.1,324 		"/>
	</g>
	
		<linearGradient id="SVGID_00000105416378181926450020000014334646977080735639_" gradientUnits="userSpaceOnUse" x1="391.4751" y1="188.8185" x2="456.4771" y2="188.8185">
		<stop  offset="2.237672e-07" style="stop-color:#29539A"/>
		<stop  offset="1" style="stop-color:#3A4E8C"/>
	</linearGradient>
	<path style="fill:url(#SVGID_00000105416378181926450020000014334646977080735639_);" d="M394.6,170.5c0,0-1.8-0.6-3.1,0.9
		c0,0,6.4,2.8,13.6,7c7.2,4.1,9.3,4.6,10.7,9.5c1.4,5,7.8,19.4,18.3,19.4c0,0,6.4,0.4,11.9-6.2c5.5-6.6,10.5-11,10.5-11
		S428,187.6,394.6,170.5z M433.3,201.7c-11.7,0-14.3-17-14.3-17c1.5,0.1,8.7,2.3,15.7,4.5c7,2.2,13.8,1.8,13.8,1.8
		S444.9,201.7,433.3,201.7z"/>
	<path class="st3" d="M331.8,491.3h-4.2c-0.2,0-0.4,0.1-0.5,0.3l-7,20c-0.1,0.3,0.1,0.7,0.5,0.7h3.2c0.2,0,0.4-0.1,0.5-0.3l1.7-4.6
		h3.7h3.7l1.7,4.6c0.1,0.2,0.3,0.3,0.5,0.3h3.2c0.4,0,0.6-0.4,0.5-0.7l-6.9-20C332.2,491.5,332,491.3,331.8,491.3z M329.7,504.3
		h-2.9l2.9-8.9l2.9,8.9H329.7z"/>
	<path class="st3" d="M457.7,491.3h-4.2c-0.2,0-0.4,0.1-0.5,0.3l-7,20c-0.1,0.3,0.1,0.7,0.5,0.7h3.2c0.2,0,0.4-0.1,0.5-0.3l1.7-4.6
		h3.7h3.7l1.7,4.6c0.1,0.2,0.3,0.3,0.5,0.3h3.2c0.4,0,0.6-0.4,0.5-0.7l-6.9-20C458.1,491.5,457.9,491.3,457.7,491.3z M455.5,504.3
		h-2.9l2.9-8.9l2.9,8.9H455.5z"/>
	<path class="st3" d="M354.7,506.3c-0.9-2.2-3-3.8-3-3.8s3.9-0.9,3.9-5.2s-3.4-5.7-5.6-5.7h-8c-0.4,0-0.7,0.3-0.7,0.7v19.6
		c0,0.3,0.2,0.5,0.5,0.5h3.2c0.3,0,0.5-0.2,0.5-0.5v-8h2.2c1.7,0,4,6.5,4.5,8.1c0.1,0.2,0.3,0.4,0.5,0.4h3.5c0.4,0,0.6-0.4,0.5-0.7
		C356.3,510.4,355.3,508,354.7,506.3z M348.5,500.9h-2.8v-6.2h2.8c1.7,0,3.1,1.4,3.1,3.1C351.6,499.5,350.2,500.9,348.5,500.9z"/>
	<path class="st3" d="M443.2,506.3c-0.9-2.2-3-3.8-3-3.8s3.9-0.9,3.9-5.2s-3.4-5.7-5.6-5.7h-8c-0.4,0-0.7,0.3-0.7,0.7v19.6
		c0,0.3,0.2,0.5,0.5,0.5h3.2c0.3,0,0.5-0.2,0.5-0.5v-8h2.2c1.7,0,4,6.5,4.5,8.1c0.1,0.2,0.3,0.4,0.5,0.4h3.5c0.4,0,0.6-0.4,0.5-0.7
		C444.8,510.4,443.8,508,443.2,506.3z M437,500.9h-2.8v-6.2h2.8c1.7,0,3.1,1.4,3.1,3.1C440.1,499.5,438.7,500.9,437,500.9z"/>
	<path class="st3" d="M511,506.3c-0.9-2.2-3-3.8-3-3.8s3.9-0.9,3.9-5.2s-3.4-5.7-5.6-5.7h-8c-0.4,0-0.7,0.3-0.7,0.7v19.6
		c0,0.3,0.2,0.5,0.5,0.5h3.2c0.3,0,0.5-0.2,0.5-0.5v-8h2.2c1.7,0,4,6.5,4.5,8.1c0.1,0.2,0.3,0.4,0.5,0.4h3.5c0.4,0,0.6-0.4,0.5-0.7
		C512.6,510.4,511.6,508,511,506.3z M504.8,500.9h-2.8v-6.2h2.8c1.7,0,3.1,1.4,3.1,3.1C507.9,499.5,506.5,500.9,504.8,500.9z"/>
	<path class="st3" d="M369.1,494.6c-7.4,0-6.9,7.3-6.9,7.3c0,5.6,4,7.3,6.4,7.3c2.4,0,2.9-1,2.9-1v-4.7h-4.3c-0.2,0-0.4-0.2-0.4-0.4
		v-2.4c0-0.2,0.2-0.4,0.4-0.4h7.8c0.3,0,0.6,0.2,0.6,0.6v9.8c0,0-2.4,1.8-6.8,1.8s-10.6-1.8-10.6-10.3s5.7-11.1,10.9-11.1
		s6.6,2.2,6.6,2.2v2.9c0,0.2-0.3,0.4-0.5,0.3C374.2,495.9,371.9,494.6,369.1,494.6z"/>
	<path class="st3" d="M389.7,491.2h-1.8c-5.1,0-9.3,4.2-9.3,9.3v3.8c0,4.5,3.7,8.2,8.2,8.2h2c5,0,9.1-4.1,9.1-9.1v-3.9
		C398,494.9,394.3,491.2,389.7,491.2z M393.6,504.6c0,2.6-2.1,4.6-4.6,4.6h-1c-2.8,0-5.1-2.3-5.1-5.1v-4.2c0-2.9,2.4-5.3,5.3-5.3
		h0.8c2.6,0,4.6,2.1,4.6,4.6V504.6z"/>
	<path class="st3" d="M540.8,491.2H539c-5.1,0-9.3,4.2-9.3,9.3v3.8c0,4.5,3.7,8.2,8.2,8.2h2c5,0,9.1-4.1,9.1-9.1v-3.9
		C549,494.9,545.3,491.2,540.8,491.2z M544.7,504.6c0,2.6-2.1,4.6-4.6,4.6h-1c-2.8,0-5.1-2.3-5.1-5.1v-4.2c0-2.9,2.4-5.3,5.3-5.3
		h0.8c2.6,0,4.6,2.1,4.6,4.6V504.6z"/>
	<path class="st3" d="M412,495.6v-2.7c0,0-0.6-1.7-4.7-1.7s-7,1.8-7,5.8c0,4,3.4,5.4,3.4,5.4s5.3,1.9,5.3,4.3s-2.2,2.5-3.6,2.5
		c-2.3,0-3.9-1.1-4.7-1.8c-0.2-0.2-0.5,0-0.5,0.3v3c0,0,1.2,1.9,5.7,1.9c4.6,0,7.4-2.7,7.4-6.4c0-3.7-2.9-5.8-5.7-6.5
		c0,0-3-0.9-3-3.1c0,0-0.1-2.3,3-2.3c2,0,3.4,0.9,4,1.5C411.7,496,412,495.8,412,495.6z"/>
	<path class="st3" d="M478.2,495.6v-2.7c0,0-0.6-1.7-4.7-1.7s-7,1.8-7,5.8c0,4,3.4,5.4,3.4,5.4s5.3,1.9,5.3,4.3s-2.2,2.5-3.6,2.5
		c-2.3,0-3.9-1.1-4.7-1.8c-0.2-0.2-0.5,0-0.5,0.3v3c0,0,1.2,1.9,5.7,1.9c4.6,0,7.4-2.7,7.4-6.4c0-3.7-2.9-5.8-5.7-6.5
		c0,0-3-0.9-3-3.1c0,0-0.1-2.3,3-2.3c2,0,3.4,0.9,4,1.5C477.9,496,478.2,495.8,478.2,495.6z"/>
	<path class="st3" d="M421.5,518.2h-0.8c-0.8,0-1.5-0.7-1.5-1.5v-26.2c0-0.8,0.7-1.5,1.5-1.5h0.8c0.8,0,1.5,0.7,1.5,1.5v26.2
		C423,517.5,422.3,518.2,421.5,518.2z"/>
	<path class="st3" d="M494.7,491.6h-13.5c-0.6,0-1,0.5-1,1v1.4c0,0.6,0.5,1,1,1h4.8v16.4c0,0.6,0.5,1,1,1h1.8c0.6,0,1-0.5,1-1V495
		h4.8c0.6,0,1-0.5,1-1v-1.4C495.7,492,495.3,491.6,494.7,491.6z"/>
	<path class="st3" d="M528,494.1v-1.8c0-0.4-0.3-0.7-0.7-0.7H520h-1.8h-1.7c-0.4,0-0.7,0.3-0.7,0.7v19.4c0,0.4,0.3,0.7,0.7,0.7h1.7
		h1.8h7c0.4,0,0.7-0.3,0.7-0.7v-2c0-0.4-0.3-0.7-0.7-0.7h-7v-6h6c0.4,0,0.7-0.3,0.7-0.7v-1.8c0-0.4-0.3-0.7-0.7-0.7h-6v-5.1h7.3
		C527.7,494.7,528,494.4,528,494.1z"/>
	<path class="st4" d="M561.2,213.4c-1-36.2-15.7-69-39.1-93.3l-3.7,3.1c0,0,36.5,34.5,37.6,90.2L561.2,213.4z"/>
	<path class="st5" d="M547,213.4c-1.8-52.9-35.5-83.3-35.5-83.3l3.3-3.3c0,0,34,29.5,37.3,86.6H547z"/>
	<path class="st6" d="M538.4,213.4c-1.9-47.7-33.7-77.3-33.7-77.3l3.2-2.9c0,0,32.3,30.3,34.9,80.1H538.4z"/>
	
		<linearGradient id="SVGID_00000010283328118356397900000001626110018442926513_" gradientUnits="userSpaceOnUse" x1="280.6848" y1="245.4438" x2="561.0211" y2="245.4438">
		<stop  offset="0" style="stop-color:#2964A6"/>
		<stop  offset="1" style="stop-color:#343E7B"/>
	</linearGradient>
	<path style="fill:url(#SVGID_00000010283328118356397900000001626110018442926513_);" d="M534.4,217.4
		c-3.9-57.8-34.8-80.6-34.8-80.6l19.6-19.4c-25.3-24.9-60-40.3-98.4-40.3c-77.4,0-140.2,62.8-140.2,140.2
		c0,39.5,22.2,83.1,70.4,148.5c12.7,17.2,23.5,33.4,32.6,48l18.2-96.3c-12.3-2-23.9-6.3-34.3-12.4c-3.3-7.8-9-23.6-9-40.7
		c0-24.1,11.6-42.5,42-42.5s60.8,28.7,71.6,63c0,0,23.1-15.8,23.1-50.1c0-33.9-37.3-97.7-101.2-113.8c7.7-1.9,15.7-2.9,24-2.9
		c55.4,0,100.3,44.9,100.3,100.3c0,48.1-33.8,88.3-79,98.1l18.3,96.7c6.8-10.7,14.8-22.4,24-35.1c46.5-64.1,79.2-106.4,79.2-160.8
		L534.4,217.4z M409.7,138.8c26.8,11,56.1,33.7,69.7,61.6c13.5,27.8,9.4,52.2-5,67.6c0,0-17.6-56-76.5-56
		c-55.6,0-49.8,62.2-49.2,78.9c-19-18.3-30.9-43.9-30.9-72.4c0-39.3,22.6-73.3,55.5-89.8C379.9,129.4,392.3,131.7,409.7,138.8z"/>
</g>
</svg>
